<svg xmlns="http://www.w3.org/2000/svg" xmlns:xlink="http://www.w3.org/1999/xlink" width="47" height="47" viewBox="0 0 47 47">
    <defs>
        <path id="a" d="M0 34.563h39.986V.141H0z"/>
    </defs>
    <g fill="none" fill-rule="evenodd">
        <path d="M0 0h47v47H0z"/>
        <g transform="translate(4 6.248)">
            <mask id="b" fill="#fff">
                <use xlink:href="#a"/>
            </mask>
            <path fill="#CFBD89" d="M20.14.14c7.82 0 14.657 5.278 16.643 12.813h3.203l-5.096 8.065-5.096-8.065h2.944A13.344 13.344 0 0 0 20.14 4.012c-6.143 0-11.494 4.2-12.955 10.146l-.464-.692-2.22-3.31A17.215 17.215 0 0 1 20.141.14zM5.096 12.954l5.095 8.065h-2.88a13.345 13.345 0 0 0 25.841-.713l.313.467 2.402 3.583A17.214 17.214 0 0 1 20.14 34.563c-8.098 0-15.107-5.655-16.82-13.545H0l5.096-8.065z" mask="url(#b)"/>
        </g>
        <path fill="#CFBD89" d="M20.208 17.58a.774.774 0 0 0-.525.31l-1.354 1.76h-1.571c-.178 0-.364.155-.412.344l-.143.564c-.02.074.03.106.095.137l.895.432-.364.472c-.221.296-.33.691-.322 1.19v4.733c0 .192.15.351.332.351h2.435a.343.343 0 0 0 .332-.351v-.47h8.788v.47c0 .193.15.351.332.351h2.435a.343.343 0 0 0 .332-.351v-4.733c.009-.499-.101-.894-.322-1.19l-.364-.472.895-.432c.065-.031.114-.062.095-.137l-.143-.564c-.048-.19-.233-.344-.411-.344H29.67l-1.354-1.76a.775.775 0 0 0-.525-.31c-2.961-.199-4.623-.207-7.584 0zm-1.584 3.258c-.14.02-.157-.082-.105-.16l1.654-2.177a.377.377 0 0 1 .269-.161c2.937-.21 4.19-.187 7.116 0a.376.376 0 0 1 .269.161l1.654 2.178c.052.077.034.18-.105.159-4.142-.225-6.61-.247-10.752 0zm-1.035 1.161l2.17.284a.568.568 0 0 1 .505.555v.428c0 .084-.066.15-.145.147l-2.169-.086c-.317-.013-.577-.298-.577-.634v-.473c0-.126.098-.236.216-.22zm12.822 0l-2.17.284a.568.568 0 0 0-.505.555v.428c0 .084.065.15.144.147l2.17-.086c.317-.013.577-.298.577-.634v-.473c0-.126-.098-.236-.216-.22z"/>
    </g>
</svg>
