<svg xmlns="http://www.w3.org/2000/svg" width="47" height="47" viewBox="0 0 47 47">
    <g fill="none" fill-rule="evenodd">
        <path d="M0 0h47v47H0z"/>
        <g fill="#CFBD89">
            <path d="M7.993 33a1.969 1.969 0 0 1-1.437-.624 2.06 2.06 0 0 1 .056-2.872l10.333-10.129 8.366 7.65 11.213-11.43a1.966 1.966 0 0 1 2.818 0c.779.793.779 2.08 0 2.873l-13.881 14.15-8.422-7.699-7.665 7.514a1.966 1.966 0 0 1-1.38.567"/>
            <path d="M37.162 28l3.762-3.77-.132-10.098L30.716 14l-3.762 3.77 10.077.132z"/>
        </g>
    </g>
</svg>
