<svg xmlns="http://www.w3.org/2000/svg" xmlns:xlink="http://www.w3.org/1999/xlink" width="47" height="47" viewBox="0 0 47 47">
    <defs>
        <path id="a" d="M36.71.289H0V37h36.71V.289z"/>
    </defs>
    <g fill="none" fill-rule="evenodd">
        <path d="M0 0h47v47H0z"/>
        <g transform="translate(5 4.711)">
            <mask id="b" fill="#fff">
                <use xlink:href="#a"/>
            </mask>
            <path fill="#CFBD89" d="M18.356 34.734c-8.886 0-16.09-7.204-16.09-16.09s7.204-16.09 16.09-16.09 16.09 7.204 16.09 16.09-7.204 16.09-16.09 16.09m0-34.446C8.218.288 0 8.506 0 18.644 0 28.781 8.218 37 18.356 37c10.138 0 18.355-8.219 18.355-18.356C36.71 8.506 28.494.288 18.356.288" mask="url(#b)"/>
        </g>
        <path fill="#CFBD89" d="M26.867 13.8a.601.601 0 0 0-.772.36l-2.477 6.797a2.496 2.496 0 0 0-1.658 4.552l-.74 2.036a.6.6 0 0 0 .564.809.603.603 0 0 0 .567-.397l.741-2.035a2.496 2.496 0 0 0 1.66-4.552l2.475-6.797a.602.602 0 0 0-.36-.772"/>
        <path fill="#CFBD89" d="M33.793 13.003a14.66 14.66 0 0 0-10.437-4.32 14.66 14.66 0 0 0-10.437 4.32 14.664 14.664 0 0 0-4.32 10.437c0 1.558.242 3.09.717 4.559a.734.734 0 0 0 .93.47v.002l2.197-.714a.343.343 0 0 0 .217-.444 11.846 11.846 0 0 1-.233-.72.345.345 0 0 0-.438-.232l-1.482.482a13.308 13.308 0 0 1-.423-4.06l1.549.163a.345.345 0 0 0 .38-.32 11.6 11.6 0 0 1 .078-.751.345.345 0 0 0-.305-.39l-1.55-.162c.222-1.375.655-2.68 1.265-3.881l1.345.777a.344.344 0 0 0 .476-.136c.119-.223.245-.441.378-.654a.343.343 0 0 0-.12-.481l-1.343-.776a13.4 13.4 0 0 1 2.73-3.03l.91 1.255a.345.345 0 0 0 .492.069c.199-.155.403-.303.612-.445.16-.11.2-.33.085-.487l-.912-1.256a13.237 13.237 0 0 1 3.725-1.664l.324 1.52c.04.192.23.31.419.264.244-.06.49-.112.74-.156a.344.344 0 0 0 .277-.411l-.324-1.523a13.341 13.341 0 0 1 4.082 0l-.324 1.523a.344.344 0 0 0 .277.41c.25.045.496.097.74.157a.343.343 0 0 0 .419-.263l.324-1.521c1.336.363 2.59.929 3.725 1.664l-.912 1.256a.343.343 0 0 0 .085.487c.209.142.413.29.612.445.154.12.376.089.49-.07l.912-1.254a13.425 13.425 0 0 1 2.73 3.03l-1.344.776a.343.343 0 0 0-.12.48c.134.214.26.432.379.655a.344.344 0 0 0 .476.136l1.345-.777a13.213 13.213 0 0 1 1.264 3.88l-1.55.163a.345.345 0 0 0-.304.39c.034.248.06.499.078.752a.345.345 0 0 0 .38.319l1.549-.163a13.352 13.352 0 0 1-.423 4.06l-1.482-.482a.345.345 0 0 0-.438.232c-.07.243-.148.483-.233.72a.343.343 0 0 0 .217.444l2.196.714a.747.747 0 0 0 .232.038.736.736 0 0 0 .698-.508c.476-1.468.717-3.003.717-4.561 0-3.945-1.534-7.651-4.32-10.437M27.464 31.963c0 .072-.086.13-.193.13h-.78c-.106 0-.192-.058-.192-.13v-.717c0-.073.086-.131.193-.131h.779c.107 0 .193.058.193.13v.718zm-1.763 0c0 .072-.086.13-.193.13h-.778c-.107 0-.194-.058-.194-.13v-.717c0-.073.087-.131.194-.131h.778c.107 0 .193.058.193.13v.718zm-1.762 0c0 .072-.087.13-.194.13h-.778c-.107 0-.193-.058-.193-.13v-.717c0-.073.086-.131.193-.131h.778c.107 0 .194.058.194.13v.718zm-1.763 0c0 .072-.087.13-.193.13h-.78c-.106 0-.192-.058-.192-.13v-.717c0-.073.086-.131.193-.131h.779c.106 0 .193.058.193.13v.718zm-1.763 0c0 .072-.086.13-.193.13h-.778c-.107 0-.194-.058-.194-.13v-.717c0-.073.087-.131.194-.131h.778c.107 0 .193.058.193.13v.718zm7.538-1.361h-9.19a.497.497 0 0 0-.497.498v2.109c0 .274.222.497.497.497h9.19a.497.497 0 0 0 .497-.497v-2.11a.497.497 0 0 0-.497-.497z"/>
    </g>
</svg>
