<svg xmlns="http://www.w3.org/2000/svg" xmlns:xlink="http://www.w3.org/1999/xlink" width="47" height="47" viewBox="0 0 47 47">
    <defs>
        <path id="a" d="M14.975 14.066V0H0v14.066h14.975z"/>
    </defs>
    <g fill="none" fill-rule="evenodd">
        <path d="M0 0h47v47H0z"/>
        <path fill="#CFBD89" d="M29.706 38.5H8.294v-1.75c0-2.895 2.217-5.25 4.941-5.25h11.53c2.724 0 4.94 2.355 4.94 5.25v1.75zM33 36.75c0-4.825-3.694-8.75-8.235-8.75h-11.53C8.695 28 5 31.925 5 36.75V42h28v-5.25zM22.667 19.5a4.17 4.17 0 0 1-4.167 4.167 4.17 4.17 0 0 1-4.167-4.167 4.17 4.17 0 0 1 4.167-4.167 4.17 4.17 0 0 1 4.167 4.167M11 19.5c0 4.137 3.365 7.5 7.5 7.5s7.5-3.363 7.5-7.5c0-4.135-3.365-7.5-7.5-7.5S11 15.365 11 19.5"/>
        <g transform="translate(27 4)">
            <mask id="b" fill="#fff">
                <use xlink:href="#a"/>
            </mask>
            <path fill="#CFBD89" d="M9.256 5.372L7.488 0 5.72 5.372H0l4.628 3.322-1.768 5.373 4.628-3.322 4.628 3.322-1.768-5.373 4.628-3.323z" mask="url(#b)"/>
        </g>
    </g>
</svg>
