<svg xmlns="http://www.w3.org/2000/svg" xmlns:xlink="http://www.w3.org/1999/xlink" width="47" height="47" viewBox="0 0 47 47">
    <defs>
        <path id="a" d="M0 17.86V0h37v17.86z"/>
    </defs>
    <g fill="none" fill-rule="evenodd">
        <path d="M0 0h47v47H0z"/>
        <g transform="translate(5 15)">
            <mask id="b" fill="#fff">
                <use xlink:href="#a"/>
            </mask>
            <path fill="#CFBD89" d="M2.61 2.61A8.911 8.911 0 0 1 8.93 0c2.289 0 4.58.87 6.32 2.61l3.25 3.25 3.07 3.07 3.25 3.25a4.582 4.582 0 0 0 3.25 1.338c1.18 0 2.359-.446 3.25-1.338a4.581 4.581 0 0 0 1.339-3.25c0-1.18-.446-2.359-1.338-3.25a4.581 4.581 0 0 0-3.25-1.339c-1.18 0-2.36.446-3.251 1.338l-2.882 2.882-3.07-3.07L21.75 2.61A8.911 8.911 0 0 1 28.07 0 8.911 8.911 0 0 1 37 8.93a8.911 8.911 0 0 1-8.93 8.93c-2.289 0-4.58-.87-6.32-2.61l-3.25-3.251-1.003-1.003L15.43 8.93l-3.25-3.25A4.581 4.581 0 0 0 8.93 4.34c-1.18 0-2.359.446-3.25 1.338A4.58 4.58 0 0 0 4.34 8.93c0 1.18.446 2.36 1.338 3.251a4.582 4.582 0 0 0 3.25 1.338c1.18 0 2.36-.446 3.251-1.338l2.882-2.882 3.07 3.07-2.882 2.881a8.912 8.912 0 0 1-6.32 2.61A8.911 8.911 0 0 1 0 8.93C0 6.64.87 4.35 2.61 2.61" mask="url(#b)"/>
        </g>
    </g>
</svg>
