<svg xmlns="http://www.w3.org/2000/svg" width="47" height="47" viewBox="0 0 47 47">
    <g fill="none" fill-rule="evenodd">
        <path d="M0 0h47v47H0z"/>
        <path fill="#CFBD89" d="M38.431 30.313c-.846.905-2.446 1.978-3.83 2.656v-3.473a.822.822 0 1 0-1.645 0V33.5c0 .058.007.115.019.17-1.141.432-2.386.79-3.701 1.067v-2.426a.822.822 0 0 0-1.646 0v2.724a31.949 31.949 0 0 1-3.906.35v-3.074a.822.822 0 0 0-1.645 0v3.079a30.629 30.629 0 0 1-3.906-.334v-3.257a.823.823 0 0 0-1.646 0v2.95a18.329 18.329 0 0 1-3.385-1.092v-4.27a.822.822 0 1 0-1.645 0v3.404c-1.19-.75-2.065-1.625-2.519-2.574a3.71 3.71 0 0 1-.343-1.615l.008-4.242c2.011 2.064 5.034 3.62 8.579 4.338 1.889.382 3.788.565 5.649.565 5.983 0 12-2.166 15.562-5.372v6.422zm-29.3-14.125c1.567-3.39 7.441-5.33 12.832-4.239 2.448.496 4.362 1.687 5.122 3.187.42.829.437 1.671.052 2.504-.786 1.702-3.486 2.764-6.286 2.62v-6.096l.014-1.023c-2.922-.394-5.83.805-6.78 2.863a3.95 3.95 0 0 0-.37 1.812h-.005v6.96c-2.082-1.016-3.667-2.413-4.485-4.03-.753-1.485-.785-3.062-.093-4.558zm7.343.921c.23-.496.884-.939 1.738-1.19v3.78c-.809-.349-1.43-.841-1.712-1.4a1.287 1.287 0 0 1-.026-1.19zm2.453 5.559c3.135.634 6.34-.01 8.487-1.507v5.042c-3.048.565-6.392.58-9.672-.086-.49-.1-.968-.217-1.432-.35v-4.086a8.368 8.368 0 0 0 2.617.987zm22.047-2.485h-2.543c-1.587 2.422-4.903 4.287-8.394 5.373v-8.882h-.007a5.471 5.471 0 0 0-.597-2.728c-1.137-2.245-3.67-3.913-6.947-4.577-6.72-1.36-13.634 1.15-15.745 5.714a7.778 7.778 0 0 0-.726 3.62H6.01L6 28.838c0 .295.032.589.098.876.109.474.297 1.205.504 1.638 1.448 3.026 5.445 5.355 10.694 6.232 1.875.313 3.76.462 5.607.462 8.116 0 15.522-2.532 18.097-7.107l-.026-10.704c.009-.018.018-.034.026-.053h-.026z"/>
    </g>
</svg>
