<svg xmlns="http://www.w3.org/2000/svg" xmlns:xlink="http://www.w3.org/1999/xlink" width="47" height="47" viewBox="0 0 47 47">
    <defs>
        <path id="a" d="M0 34.563h39.986V.141H0z"/>
    </defs>
    <g fill="none" fill-rule="evenodd">
        <path d="M0 0h47v47H0z"/>
        <path fill="#CFBD89" d="M29.876 20.141h-4.948v-.67c0-.71-.058-1.171-.171-1.392-.117-.217-.36-.326-.736-.326-.676 0-.908.465-.908 1.131 0 .632.155 1.073.47 1.325.3.252 1.19.744 2.667 1.475 1.259.615 2.116 1.09 2.572 1.416 1.153.826 1.631 2.199 1.631 3.638 0 1.434-.426 2.559-1.275 3.374-.75.72-1.83 1.2-3.246 1.435v1.592H22.5v-1.63a6.528 6.528 0 0 1-2.89-1.173c-.987-.72-1.48-1.973-1.48-3.767v-.785h4.947v.985c0 1.081.054 1.753.155 2.015.1.261.351.394.74.394.673 0 .995-.374.995-1.087 0-.9-.08-1.545-.234-1.933-.155-.39-.686-.812-1.593-1.27-1.186-.604-3.128-1.469-4.012-2.546-1.346-1.64-1.622-4.262.185-5.735.739-.602 1.8-1.002 3.187-1.196V14.06h3.433v1.358c2.105.33 3.994 1.317 3.994 3.965 0 .167-.017.418-.05.758"/>
        <g transform="translate(4 6.248)">
            <mask id="b" fill="#fff">
                <use xlink:href="#a"/>
            </mask>
            <path fill="#CFBD89" d="M20.14.14c7.82 0 14.657 5.278 16.643 12.813h3.203l-5.096 8.065-5.096-8.065h2.944A13.344 13.344 0 0 0 20.14 4.012c-6.143 0-11.494 4.2-12.955 10.146l-.464-.692-2.22-3.31A17.215 17.215 0 0 1 20.141.14zM5.096 12.954l5.095 8.065h-2.88a13.345 13.345 0 0 0 25.841-.713l.313.467 2.402 3.583A17.214 17.214 0 0 1 20.14 34.563c-8.098 0-15.107-5.655-16.82-13.545H0l5.096-8.065z" mask="url(#b)"/>
        </g>
    </g>
</svg>
