<svg xmlns="http://www.w3.org/2000/svg" xmlns:xlink="http://www.w3.org/1999/xlink" width="47" height="47" viewBox="0 0 47 47">
    <defs>
        <path id="a" d="M0 35h45.9V0H0z"/>
    </defs>
    <g fill="none" fill-rule="evenodd">
        <path d="M0 0h47v47H0z"/>
        <g transform="translate(0 4)">
            <path fill="#CFBD89" d="M34.924 1.243c-.68 0-1.234.519-1.234 1.156 0 .638.553 1.155 1.234 1.155.68 0 1.235-.517 1.235-1.155 0-.637-.554-1.156-1.235-1.156zM31.01 7c-.593 0-1.075-.451-1.075-1.007V3.405c0-.556.482-1.006 1.075-1.006h.523c.426 0 .808-.261.923-.648C32.76.741 33.75 0 34.924 0s2.166.74 2.468 1.751c.116.387.497.648.924.648h.522c.594 0 1.075.45 1.075 1.006v2.588c0 .556-.481 1.007-1.075 1.007H31.01z"/>
            <path fill="#CFBD89" d="M41.165 4c0 .019.002.573.002 1.662h2.31c.974 0 1.766.795 1.766 1.773v25.13c0 .978-.792 1.773-1.766 1.773H27.369a1.771 1.771 0 0 1-1.765-1.773V7.435c0-.978.792-1.773 1.765-1.773h2.31V4.084c0-.019-.77-.047-2.31-.084a3.433 3.433 0 0 0-3.421 3.435v25.13A3.432 3.432 0 0 0 27.369 36h16.108a3.432 3.432 0 0 0 3.421-3.435V7.435A3.433 3.433 0 0 0 43.477 4h-2.312z"/>
            <path fill="#CFBD89" d="M41.498 10.243l-.074.036-.185.098a9.653 9.653 0 0 0-.538.312c-.06.036-.118.072-.175.109l-.171.112-.167.116c-.11.078-.22.159-.328.239-.107.083-.212.164-.316.25-.106.082-.206.172-.307.258l-.185.167-.064-.04c-.086-.048-.17-.1-.255-.146a7.85 7.85 0 0 0-.53-.277c-.091-.042-.181-.087-.275-.127l-.283-.12c-.096-.039-.195-.074-.292-.11-.079-.032-.163-.057-.245-.085V9.733h4.39v.51zm0 4.024h-4.39v-2.142c.137.14.276.279.413.42l.397.404c.132.136.266.27.401.402l.434.431c.273.272.72.275.998.006l.2-.194c.095-.092.19-.188.284-.28l.284-.282.979-.972v2.207zM36.36 9v1.834a3.106 3.106 0 0 0-.287-.048l-.06-.009a.088.088 0 0 0-.066.02.08.08 0 0 0-.004.114c.128.138.258.278.39.412l.027.029V15h5.884v-3.695l.53-.54c.19-.19.371-.384.557-.576.184-.192.369-.384.552-.579a.08.08 0 0 0 .02-.066.082.082 0 0 0-.092-.07l-.058.008c-.17.022-.325.055-.477.094-.153.036-.3.079-.446.121-.141.05-.286.094-.421.148l-.165.062V9h-5.884zM41.498 18.243l-.074.035-.185.098c-.123.068-.244.134-.362.206l-.176.106c-.06.038-.118.072-.175.11l-.171.113-.167.116a11.632 11.632 0 0 0-.644.488c-.106.083-.206.173-.307.259l-.185.165-.064-.04c-.086-.048-.17-.1-.255-.146-.086-.047-.173-.097-.262-.14-.087-.048-.177-.09-.267-.135-.092-.044-.182-.088-.276-.127l-.283-.12c-.096-.04-.195-.075-.292-.112-.079-.03-.163-.056-.245-.084v-1.302h4.39v.51zm0 4.024h-4.39v-2.141c.137.14.276.277.413.418l.397.404c.132.137.266.27.401.404l.434.429c.273.273.72.276.998.005l.2-.191.284-.282.284-.28.979-.974v2.208zm2.314-4.792l-.058.008a3.99 3.99 0 0 0-.477.093c-.153.036-.3.08-.446.123-.141.05-.286.092-.421.146l-.165.062V17h-5.884v1.835a3.105 3.105 0 0 0-.287-.05l-.06-.008a.083.083 0 0 0-.066.02.08.08 0 0 0-.004.115c.128.138.258.276.39.412l.027.027V23h5.884v-3.696l.53-.54c.19-.189.371-.382.557-.574.184-.193.369-.384.552-.58a.077.077 0 0 0 .02-.065.081.081 0 0 0-.092-.07zM37.108 28.126c.138.14.276.279.413.42l.397.404c.132.134.266.27.4.402l.434.429c.273.272.72.275.998.007l.2-.195c.096-.09.19-.186.284-.28l.285-.282.978-.972v2.208h-4.389v-2.141zm0-2.392h4.389v.51l-.073.036-.186.096c-.122.068-.243.136-.362.206-.06.035-.118.072-.176.108-.059.034-.118.072-.174.109l-.17.112-.168.116a11.63 11.63 0 0 0-.328.239c-.107.082-.213.164-.317.25-.105.082-.205.172-.307.258l-.184.167-.065-.04c-.086-.049-.169-.1-.254-.148a7.824 7.824 0 0 0-.262-.14c-.088-.047-.178-.09-.268-.136-.091-.042-.181-.086-.276-.127l-.283-.119c-.095-.039-.194-.075-.29-.112-.08-.03-.163-.056-.246-.084v-1.3zM42.244 31v-3.696l.531-.538c.189-.19.372-.385.556-.576.185-.192.37-.385.552-.578a.088.088 0 0 0 .021-.067.083.083 0 0 0-.093-.07l-.058.008a4.347 4.347 0 0 0-.477.093c-.153.037-.3.08-.446.123-.14.048-.286.093-.42.147l-.166.062V25h-5.883v1.833a4.43 4.43 0 0 0-.287-.048l-.06-.008a.085.085 0 0 0-.066.02.08.08 0 0 0-.004.115c.13.138.258.276.39.412l.027.027V31h5.883z"/>
            <mask id="b" fill="#fff">
                <use xlink:href="#a"/>
            </mask>
            <path fill="#CFBD89" d="M26.941 10.929h6.985V10h-6.985zM26.941 12.929h3.992V12H26.94zM26.941 18.929h4.99V18h-4.99zM26.941 20.928h2.994V20H26.94zM26.941 26.929h6.985V26h-6.985zM26.941 28.929h5.987V28h-5.987zM4.99 30v2.279c0 .95.756 1.721 1.691 1.721h4.6c.934 0 1.69-.77 1.69-1.721v-1.614a329.767 329.767 0 0 1-6.661-.251A2.726 2.726 0 0 1 4.99 30M14.347 23.674l-.001.01a.995.995 0 0 1-.736.751c-.017.004-.032.009-.047.011a11.686 11.686 0 0 1-3.744.104 5.15 5.15 0 0 1-2.19-.83A1.426 1.426 0 0 1 7 22.536V20.99a.71.71 0 0 1 .635-.705l1.234-.127c.47-.05.944.05 1.357.282.238.134.51.288.81.453.861.476 1.203.646 1.84 1.01.29.168.685.399 1.154.69a.79.79 0 0 1 .368.721c-.007.11-.022.232-.05.36zm8.471 5.45h-5.627a.698.698 0 0 1-.696-.7v-.776c0-.388.312-.698.696-.698h5.627V14.458a137.51 137.51 0 0 0-.762-.003c-5.584-.01-8.91.27-13.634.714.485-.949 2.22-4.278 2.22-4.278a3.75 3.75 0 0 1 2.612-1.982 47.914 47.914 0 0 1 9.152-.931c.08-.002.159-.002.237-.002l.175.002v-.915c0-.367.047-.722.132-1.06-.103 0-.204-.003-.307-.003l-.245.001a49.692 49.692 0 0 0-9.528.971 5.735 5.735 0 0 0-3.975 3.017l-2.632 5.146a2.863 2.863 0 0 0-2.071-1.182l-2.078-.186a1.947 1.947 0 0 0-2.107 1.775 1.95 1.95 0 0 0 1.764 2.116l3.128.277a11.25 11.25 0 0 0-.765 4.074v5.478c0 1.133.884 2.068 2.011 2.121 5.235.25 10.698.39 16.375.392h.298v-.877z" mask="url(#b)"/>
        </g>
    </g>
</svg>
