<svg xmlns="http://www.w3.org/2000/svg" width="47" height="47" viewBox="0 0 47 47">
    <g fill="none" fill-rule="evenodd">
        <path d="M0 0h47v47H0z"/>
        <g stroke="#CFBD89" stroke-width="2">
            <path d="M43 26.125l-3.455-3.454-5.181 5.182-5.182-5.182-3.455 3.454 5.182 5.182-5.182 5.182 3.455 3.455 5.182-5.182 5.181 5.182L43 36.489l-5.182-5.182z"/>
            <path d="M42.136 20.955V10.58C42.136 9.15 41.04 8 39.61 8H7.655C6.224 8 5 9.15 5 10.58v20.717c0 1.43 1.224 2.612 2.655 2.612H24M5 13.182h37.136M5 18.364h37.136M7.59 21.818h6.046"/>
        </g>
    </g>
</svg>
