<svg xmlns="http://www.w3.org/2000/svg" xmlns:xlink="http://www.w3.org/1999/xlink" width="47" height="47" viewBox="0 0 47 47">
    <defs>
        <path id="a" d="M0 .409H24.41v36.176H0z"/>
    </defs>
    <g fill="none" fill-rule="evenodd">
        <path d="M0 0h47v47H0z"/>
        <path fill="#CFBD89" d="M17.89 32.607h3.387v-7.148H17.89zM23.398 32.607h3.387v-9.455h-3.387zM28.47 32.607h3.388V18.31h-3.387zM33.509 32.607h3.387V15.082H33.51zM38.582 32.607h3.387V12.545h-3.387zM12.896 32.607h3.308V27.88h-.89l-.028.06-2.39 4.667zM12.435 33.507l-1.064 2.079v.355h32.514v-2.536z"/>
        <g transform="translate(4 4.08)">
            <mask id="b" fill="#fff">
                <use xlink:href="#a"/>
            </mask>
            <path fill="#CFBD89" d="M8.475 6.28c1.832-3.576 6.284-4.968 9.925-3.104 3.64 1.865 5.113 6.291 3.282 9.867-1.832 3.576-6.284 4.97-9.925 3.105-3.64-1.865-5.113-6.291-3.282-9.868m2.462 15.077l1.467-2.864c4.25 1.314 8.932-.525 11.002-4.567 2.322-4.534.476-10.119-4.123-12.474C14.684-.903 9.073.863 6.75 5.397c-2.07 4.042-.826 8.917 2.725 11.596L8.01 19.858a2.637 2.637 0 0 0-1.833 1.386L.29 32.734A2.645 2.645 0 1 0 5 35.146l5.884-11.49c.382-.747.374-1.59.053-2.298" mask="url(#b)"/>
        </g>
        <path fill="#CFBD89" d="M18.793 15.898a4.11 4.11 0 0 1-1.93-.511l-.348 1.359c.441.244 1.197.465 1.976.5v1.104h1.15v-1.197c1.337-.22 2.058-1.104 2.058-2.138 0-1.058-.547-1.698-1.93-2.186-1-.36-1.407-.616-1.407-.987 0-.326.245-.663 1-.663.837 0 1.384.267 1.674.407l.349-1.314a4.21 4.21 0 0 0-1.697-.384V8.866h-1.14v1.103c-1.243.234-1.964 1.035-1.964 2.07 0 1.127.849 1.708 2.093 2.127.871.29 1.244.57 1.244 1.01 0 .454-.454.722-1.128.722"/>
    </g>
</svg>
