<svg xmlns="http://www.w3.org/2000/svg" width="47" height="47" viewBox="0 0 47 47">
    <g fill="none" fill-rule="evenodd">
        <path d="M0 0h47v47H0z"/>
        <path fill="#CFBD89" d="M4.55 31.147a.288.288 0 0 1-.287-.287v-.976h18.802v.976c0 .158-.13.287-.286.287H4.549zm-.212-13.068c-.736 0-1.338.602-1.338 1.338v11.655c0 .736.602 1.338 1.338 1.338h18.653c.735 0 1.338-.602 1.338-1.338v-2.183l-1.441.067c-.458.02-.914.065-1.373.081-1.613.055-3.13-.31-3.43-2.021H4.263v-7.388c0-.157.13-.286.287-.286h18.229c.158 0 .286.129.286.286v3.481c.423-.11.845-.219 1.264-.338v-3.354c0-.736-.603-1.338-1.338-1.338H4.338zm12.144-.636l1.01-1.146c.878-1.001 1.346-1.496 2.654-1.87 1.229-.353 2.431-.709 3.686-.977.28-.06.552-.14.827-.219.787-.222 1.265-.325 2.184-.121.469.104.917.367 1.509.57l5.78 2.234c.96.372 1.69.644 2.45.82v9.692c-1.884.507-6.266 1.423-7.937 1.553-1.17.092-2.374.132-3.547.186l-2.242.103c-1.575.072-3.978.524-4.128-1.666-.14-2.03 1.83-2.401 3.268-2.499.867-.24 1.827-.465 2.728-.73.4-.116.794-.244 1.183-.389.283-.105.508-.215.596-.442.059-.15.05-.447.05-.612-.004-1.04-.202-1.793-.9-2.399a3.527 3.527 0 0 0-.565-.39 2.386 2.386 0 0 0-.157-.087 1.98 1.98 0 0 0-1.94-1.61h-6.509zm21.433-1.62h6.687a.4.4 0 0 1 .398.399v12.535a.4.4 0 0 1-.398.399h-6.687a.4.4 0 0 1-.398-.399V16.222a.4.4 0 0 1 .398-.399z"/>
    </g>
</svg>
