<svg xmlns="http://www.w3.org/2000/svg" xmlns:xlink="http://www.w3.org/1999/xlink" width="47" height="47" viewBox="0 0 47 47">
    <defs>
        <path id="a" d="M0 24.944V0h24.944v24.944z"/>
        <path id="c" d="M0 40.833h24.944V0H0z"/>
    </defs>
    <g fill="none" fill-rule="evenodd">
        <path d="M0 0h47v47H0z"/>
        <g transform="translate(11 3)">
            <mask id="b" fill="#fff">
                <use xlink:href="#a"/>
            </mask>
            <path fill="#CFBD89" d="M13.354 18.674v2.115H11.59v-1.978c-1.26-.048-2.258-.355-3.026-.805l.542-1.652c.642.417 1.776.863 2.861.863 1.578 0 2.317-.79 2.317-1.777 0-1.036-.617-1.602-2.219-2.194-2.145-.763-3.156-1.947-3.156-3.377 0-1.53.917-2.842 2.68-3.313V4.28h1.765v2.097c1.008.055 2.002.372 2.607.729l-.543 1.578a4.645 4.645 0 0 0-2.44-.69c-1.283 0-1.998.74-1.998 1.627 0 .986.715 1.43 2.269 2.022 2.07.789 3.13 1.825 3.13 3.6 0 1.71-1.135 3.01-3.025 3.43M12.472 0C5.584 0 0 5.584 0 12.472s5.584 12.472 12.472 12.472 12.472-5.584 12.472-12.472S19.36 0 12.472 0" mask="url(#b)"/>
            <mask id="d" fill="#fff">
                <use xlink:href="#c"/>
            </mask>
            <path fill="#CFBD89" d="M9.951 29.61h5.041v-7.183h-5.04z" mask="url(#d)"/>
            <path fill="#CFBD89" d="M19.338 31.493l-5.851 8.797a1.219 1.219 0 0 1-2.03-.002l-5.85-8.794a1.212 1.212 0 0 1 1.014-1.883h11.702a1.21 1.21 0 0 1 1.015 1.882" mask="url(#d)"/>
        </g>
    </g>
</svg>
